Patient4_TMGait_0pt4_01_right_22_EMG.mot
version=1
nRows=26
nColumns=33
inDegrees=no
endheader
time	1LAddLong	2LGlutMax	3LGlutMed	4LIliopsoas	5LSemiMemb	6LBicFemLong	7LRecFem	8LVastMed	9LVastLat	10LGasMed	11LTibAnt	12lTibPost	13LPeroneusLong	14LSol	15LExtDigLong	16LFlexDigLong	17RAddLong	18RGlutMax	19RGlutMed	20RIliopsoas	21RSemiMemb	22RBicFemLong	23RRecFem	24RVastMed	25RVastLat	26RGasMed	27RTibAnt	28RTibPost	29RPeroneusLong	30RSol	31RExtDigLong	32RFlexDigLong
28.767	-0.005646	-0.03891	-0.3096	0.005341	-0.011597	0.034637	0.054932	0.008392	0.15564	0.015411	0.091248	0.000153	-0.000763	-0.18112	0.1297	0.003357	-0.054321	-0.69565	-0.093842	0.037537	-0.1358	-0.11978	0.33951	-0.13596	-0.56976	-0.016022	-0.019836	-0.023041	-0.054169	-0.17181	-0.000763	-0.014343
28.768	-0.04425	-0.058289	-0.31479	0.00946	-0.012207	0.009613	0.059052	0.005493	0.15595	0.019836	0.098114	-0.000153	-0.020447	-0.19836	0.20371	-0.002594	-0.022278	-0.83023	-0.16846	0.023041	-0.13657	-0.18677	0.30716	-0.039368	-0.39246	-0.010376	0.08255	-0.03006	-0.00473	-0.001678	-0.000916	-0.014343
28.769	-0.021362	-0.068512	-0.27679	0.023956	-0.004883	0.000916	0.087585	0.004425	0.13855	0.023499	0.026855	0.010223	-0.031281	-0.14587	0.30914	-0.009308	0.017395	-1.0568	-0.79468	0.044556	-0.1268	-0.20691	0.34988	-0.064392	-0.25803	-0.002594	0.006561	-0.020294	0.069885	0.031738	-0.003052	-0.009613
28.77	-0.001221	-0.061798	-0.19318	0.025177	-0.010529	0.023193	0.090027	0.00412	0.13229	0.030365	-0.019989	0.002747	-0.037842	-0.075989	0.25299	0.002594	-0.019989	-1.0014	-1.1365	0.07843	-0.17212	-0.15778	0.30746	0.097961	-0.16342	-0.004883	-0.070496	-0.022736	0.14664	0.14267	0.00061	-0.012207
28.771	0.002899	-0.040436	-0.1329	-0.009766	-0.014648	-0.003662	0.088806	0.003815	0.13779	0.02182	0.006561	0.007629	-0.054169	-0.078125	0.23331	0.004272	-0.047455	-1.0378	-0.28686	-0.050812	-0.17517	-0.17822	0.35614	0.084534	-0.071106	-0.002899	-0.1564	-0.020294	0.079498	0.19562	-0.002441	-0.012665
28.772	0.024872	-0.025177	-0.12756	0.004425	-0.007172	-0.021973	0.018311	0.006256	0.14236	-0.000153	-0.01358	0.001526	-0.037689	-0.10864	0.25436	-0.000916	-0.040131	-1.1829	-0.48462	-0.099335	0.12329	-0.28427	0.41748	-0.067596	-0.029755	-0.015564	-0.19623	-0.020752	-0.13489	0.14679	0.001831	-0.020752
28.773	0.000458	0.029297	-0.12772	-0.004578	-0.006866	-0.029449	0.036926	0.003052	0.15533	0.014191	-0.019836	-0.01236	-0.041199	-0.11597	0.19165	-0.008087	-0.019989	-1.275	-0.49072	-0.049286	0.29587	-0.31693	0.46478	-0.17334	-0.079193	-0.011139	-0.29159	-0.016937	-0.16953	0.02533	0.000305	-0.018311
28.774	0.005188	0.008392	-0.10025	-0.010681	-0.00885	-0.045013	0.043182	-0.002747	0.15579	0.024414	-0.09903	0.003052	-0.074463	-0.059814	0.044556	-0.015411	-0.010529	-1.3773	-1.2915	-0.036469	0.26047	-0.22263	0.61508	-0.20081	-0.12894	-0.00824	-0.25559	-0.012817	-0.049896	-0.012512	-0.001526	-0.001984
28.775	0.005341	0.00824	-0.066376	-0.039215	-0.006714	-0.0177	0.10284	0.00473	0.14282	0.021515	-0.13092	-0.007782	-0.060425	-0.032043	-0.065918	-0.00885	0.021362	-1.5089	-1.4355	-0.071106	0.065613	-0.093231	0.71152	-0.17349	-0.14511	-0.007172	0.18875	-0.013428	-0.052185	-0.14023	-0.005188	0.00061
28.776	-0.002136	0.0354	-0.057068	-0.034637	-0.00061	-0.044861	0.13382	0.009766	0.15381	0.025177	-0.046844	0.012817	-0.03006	-0.00061	-0.16174	-0.00885	0.008698	-1.6666	-1.1192	-0.040741	-0.27237	-0.024719	0.61859	-0.058594	-0.12756	-0.017548	0.056458	-0.016785	-0.06424	-0.35156	-0.001373	0.002136
28.777	0.005341	0.033417	-0.066071	0.020294	-0.001678	-0.038147	0.17624	0.010529	0.15961	0.004578	-0.039063	0.005188	-0.018768	0.039063	0.29678	-0.010376	0.013275	-1.6774	-0.58411	-0.063477	-0.20065	-0.096588	0.47348	0.92056	-0.03479	-0.012207	-0.076904	-0.015259	-0.040741	-0.62729	-0.004272	-0.00412
28.778	-0.009308	0.00824	-0.049896	0.071716	-0.009003	-0.06134	0.20737	-0.002289	0.17777	-0.013733	0.1207	0.008392	-0.026245	0.077209	0.68436	-0.011444	0.000458	-1.7796	-1.5907	0.007019	-0.19867	-0.045319	0.43747	0.91141	0.014648	0.001526	0.15091	-0.00473	0.066071	-0.63431	-0.001831	0.002441
28.779	0.006714	-0.010223	-0.05127	0.053406	-0.011292	-0.062866	0.20905	0.005646	0.17456	-0.035706	0.32516	0.008087	-0.002441	0.12329	1.0667	0.004272	-0.032043	-1.9307	-1.4575	0.009155	-0.086823	0.10437	0.51285	0.22995	-0.056458	-0.00061	0.14755	0.001678	0.034027	-0.4837	-0.00061	0.007629
28.78	0.005646	0.005188	-0.0354	0.043182	0.018005	-0.048523	0.15076	0.015564	0.15686	-0.098572	0.20874	0.012665	0.03418	0.19409	-0.12543	0.004578	0.009766	-1.9293	-0.6572	0.020447	0.11841	0.14511	0.30563	-0.20523	-0.085602	-0.003357	-0.95429	0.005798	0.036774	-0.32837	-0.002747	0.006561
28.781	-0.000153	0.011139	0.002289	0.029144	-0.012512	-0.03952	0.18005	0.001984	0.15656	-0.10681	0.2652	0.014954	0.022278	0.24063	-0.55145	0.005951	0.015259	-1.7809	0.84579	0.003357	-0.009155	0.094299	0.25543	-0.47958	-0.16312	-0.012817	-1.0867	-0.000153	-0.061951	0.19913	0.004272	0.010376
28.782	0.002136	0.025024	0.031586	-0.019989	-0.007782	-0.029602	0.20309	0.011292	0.15732	-0.04776	0.15274	0.007629	-0.039673	0.24674	-0.87219	-0.019989	0.056305	-1.5569	0.10529	0.008392	-0.17883	-0.038757	0.45258	-0.7399	0.15656	-0.00061	-0.67993	0.002289	-0.009613	0.4364	-0.000458	0.013123
28.783	0.007935	-0.009766	0.042267	-0.005951	-0.00061	-0.033722	0.29221	0.006256	0.15793	0.006866	0.21683	0.013123	-0.082703	0.083618	-0.448	-0.018463	0.023041	-1.3814	-0.18082	0.024109	-0.095062	-0.23987	0.48981	-0.52765	0.40115	0.023499	-0.31052	-0.002289	0.21927	0.28641	-0.007019	0.017548
28.784	0.007477	-0.026855	0.056	0.016174	-0.013428	-0.038147	0.40009	0.016327	0.14038	-0.000916	-0.074005	0.007629	-0.034027	-0.025635	-0.075989	-0.00946	-0.003204	-1.2331	-0.4454	0.000916	-0.41824	-0.14771	0.044098	-0.12497	0.42557	0.024567	-0.20889	-0.002441	0.33951	0.38391	-0.004272	0.014343
28.785	-0.001373	-0.046082	0.072327	0.016022	-0.008545	-0.008392	0.46326	0.013428	0.10681	-0.028381	-0.30838	0.007782	0.06134	-0.079041	-0.15656	-0.012817	0.026245	-1.1116	-0.31769	-0.016327	-0.29404	0.046692	-0.38208	-0.1004	0.38315	0.009308	0.38925	-0.005341	0.014038	0.21133	0.00061	0.003052
28.786	-0.01236	-0.070953	0.10452	0.005341	-0.01236	-0.002747	0.29984	0.012665	0.093536	-0.003357	-0.17044	0.010376	0.046082	-0.16007	-0.40604	-0.010529	0.072479	-0.94864	-0.55206	0.003052	0.33218	0.066833	-0.43274	-0.27634	0.20203	-0.00946	1.1008	0.000458	-0.24536	0.25269	0.001831	-0.007477
28.787	-0.015717	-0.085297	0.13001	-0.015564	-0.002289	0.001221	0.15747	0.020599	0.090027	0.036011	0.068817	0.011749	-0.035553	-0.076447	-0.12955	-0.005798	0.005951	-0.95673	-0.33554	-0.007782	0.4451	0.11993	-0.30899	-0.28427	0.11612	-0.004883	0.60989	0.004272	-0.042419	0.090332	-0.001526	-0.002136
28.788	-0.025787	-0.092468	0.13428	-0.024414	-0.011139	-0.00946	0.2214	0.028992	0.092926	0.036469	0.19257	0.00885	-0.088959	0.019531	0.24033	-0.006409	-0.15198	-0.80795	-0.74081	-0.068054	-0.43701	0.33371	-0.048676	0.023499	-0.24902	0.011444	0.19745	-0.000305	0.076752	0.072784	-0.001221	-0.001373
28.789	-0.021973	-0.086975	0.15091	-0.029449	-0.013123	0.00061	0.2742	0.022125	0.12131	0.030212	0.06897	0.009308	-0.074768	0.089264	0.034332	-0.015564	-0.18814	-0.55588	-1.4333	0.075989	-0.32944	0.2858	0.27069	0.20523	-0.746	0.010223	-0.21301	-0.001984	0.15091	-0.016632	-0.000305	-0.005035
28.79	-0.024719	-0.15411	0.13184	-0.028687	-0.011597	-0.003204	0.22705	0.019073	0.10361	0.002747	-0.10147	0.001068	-0.030212	0.11139	0.21744	-0.00351	-0.13458	-0.30151	-1.2796	0.23651	0.12299	0.085602	0.25848	0.22644	-0.39215	0.00885	-0.65002	-0.006866	0.059662	0.17212	-0.001373	-0.000153
28.791	-0.02243	-0.1384	0.13962	0.011749	-0.010071	-0.016785	0.12756	0.018005	0.093842	-0.003815	-0.20554	0.005341	-0.025024	0.012665	1.1031	0.004272	-0.079651	-0.046692	0.036621	0.14328	0.085144	-0.19913	0.13245	0.13504	-0.16815	-0.019226	-0.50949	-0.003662	-0.085754	0.28076	0.000305	-0.011444
28.792	-0.015869	-0.17364	0.16281	-0.025177	-0.005493	-0.00946	-0.039825	0.027466	0.094452	0.014648	-0.21316	0.007477	-0.005188	-0.029144	-0.32562	-0.003815	-0.046082	0.025635	0.83023	-0.016174	-0.005035	-0.43808	-0.00885	0.03952	-0.032654	-0.019226	-0.13046	-0.002899	-0.16373	-0.12634	-0.001526	0.003052
